<?xml version="1.0" standalone="no"?>
<!DOCTYPE svg PUBLIC "-//W3C//DTD SVG 20010904//EN"
 "http://www.w3.org/TR/2001/REC-SVG-20010904/DTD/svg10.dtd">
<svg version="1.0" xmlns="http://www.w3.org/2000/svg"
 width="300.000000pt" height="176.000000pt" viewBox="0 0 300.000000 176.000000"
 preserveAspectRatio="xMidYMid meet">

<g transform="translate(0.000000,176.000000) scale(0.100000,-0.100000)"
fill="#000000" stroke="none">
<path d="M0 1567 c0 -180 1 -187 20 -187 19 0 20 7 20 142 l0 143 150 -150
150 -150 0 195 0 195 -85 -85 -85 -85 -85 85 -85 85 0 -188z m300 -9 l0 -103
-52 52 -53 53 50 50 c27 27 51 50 52 50 2 0 3 -46 3 -102z"/>
<path d="M1486 1673 c-3 -4 -6 -26 -6 -49 l0 -43 -36 15 c-100 42 -199 -86
-132 -171 37 -48 106 -64 153 -36 6 3 20 4 33 2 22 -2 22 -2 22 137 0 111 -3
141 -14 145 -8 3 -17 3 -20 0z m-23 -135 c38 -45 1 -128 -58 -128 -54 0 -92
70 -64 121 22 42 89 46 122 7z"/>
<path d="M2790 1525 c0 -138 1 -145 20 -145 18 0 20 7 20 73 0 85 16 117 59
117 53 0 65 -20 69 -109 4 -69 7 -81 21 -81 14 0 18 10 20 55 3 73 -14 130
-46 154 -28 23 -73 27 -104 11 -17 -10 -19 -7 -19 30 0 33 -3 40 -20 40 -19 0
-20 -7 -20 -145z"/>
<path d="M494 1599 c-51 -15 -79 -53 -79 -109 0 -58 28 -94 85 -111 70 -21
140 35 140 111 0 78 -70 131 -146 109z m89 -56 c10 -10 17 -31 17 -53 0 -77
-89 -103 -137 -41 -7 9 -12 27 -12 41 0 67 80 99 132 53z"/>
<path d="M1059 1594 c-61 -25 -87 -100 -55 -162 24 -47 88 -70 138 -49 46 20
69 49 74 94 11 87 -75 150 -157 117z m81 -39 c55 -28 52 -105 -4 -131 -29 -14
-37 -15 -62 -3 -55 27 -57 109 -4 136 32 16 35 16 70 -2z"/>
<path d="M1895 1596 c-50 -22 -70 -52 -70 -106 0 -56 27 -92 80 -110 54 -18
146 30 106 54 -5 3 -23 -2 -41 -10 -30 -15 -35 -15 -66 -1 -59 29 -59 105 0
134 31 14 36 14 66 -1 49 -24 72 -1 28 28 -36 23 -70 27 -103 12z"/>
<path d="M2290 1531 c0 -95 11 -125 57 -146 45 -22 97 -6 124 39 26 43 24 179
-3 184 -16 3 -18 -6 -18 -73 0 -67 -3 -79 -25 -100 -29 -30 -45 -31 -74 -7
-17 14 -21 30 -23 97 -3 67 -6 80 -20 83 -16 3 -18 -6 -18 -77z"/>
<path d="M724 1591 c-2 -2 -4 -51 -4 -108 0 -96 1 -103 20 -103 18 0 20 7 20
73 0 82 15 107 62 107 43 0 58 -28 58 -108 0 -65 2 -72 20 -72 18 0 20 7 20
65 0 74 -18 128 -49 144 -18 10 -137 12 -147 2z"/>
<path d="M2085 1592 c-3 -3 -5 -52 -5 -109 0 -96 1 -103 20 -103 18 0 20 7 20
68 0 80 17 112 59 112 24 0 41 15 41 36 0 6 -129 2 -135 -4z"/>
<path d="M2580 1580 c-44 -44 -16 -91 62 -105 70 -13 50 -62 -22 -52 -26 3
-43 1 -50 -8 -27 -32 86 -49 128 -19 15 10 22 25 22 48 0 40 -13 52 -71 69
-61 18 -59 42 3 42 55 0 70 11 44 31 -29 21 -92 18 -116 -6z"/>
<path d="M1385 806 c-62 -27 -112 -117 -98 -175 3 -14 16 -40 29 -57 20 -28
22 -34 9 -44 -38 -32 12 -118 82 -141 76 -25 196 16 240 82 56 86 48 185 -24
268 -62 73 -161 101 -238 67z"/>
</g>
</svg>
